<?xml version="1.0" encoding="utf-8"?>
<!-- Generator: Adobe Illustrator 15.0.2, SVG Export Plug-In . SVG Version: 6.00 Build 0)  -->
<!DOCTYPE svg PUBLIC "-//W3C//DTD SVG 1.1//EN" "http://www.w3.org/Graphics/SVG/1.1/DTD/svg11.dtd">
<svg version="1.1" id="Ebene_1" xmlns="http://www.w3.org/2000/svg" xmlns:xlink="http://www.w3.org/1999/xlink" x="0px" y="0px"
	 width="841.891px" height="595.279px" viewBox="0 0 841.891 595.279" enable-background="new 0 0 841.891 595.279"
	 xml:space="preserve">
<g>
	<path fill="#009393" d="M564.242,327.939h10.272v27.955h6.026v-27.955h10.273v-5.215h-26.573L564.242,327.939L564.242,327.939z
		 M560.771,331.872c-0.307-3.102-1.479-5.51-3.501-7.23c-2.029-1.721-4.908-2.578-8.639-2.578c-3.731,0-6.688,0.832-8.866,2.502
		c-2.146,1.604-3.219,3.781-3.219,6.543c0,2.352,0.682,4.191,2.043,5.52c1.359,1.328,3.319,2.484,5.877,3.475l6.594,2.605
		c1.462,0.545,2.521,1.135,3.167,1.764c0.646,0.631,0.972,1.533,0.972,2.711c0,1.172-0.595,2.111-1.789,2.807
		c-1.191,0.699-2.486,1.049-3.884,1.049c-1.396,0-2.523-0.115-3.374-0.354c-2.828-0.717-4.242-2.439-4.242-5.164h-5.978
		c0.135,3.613,1.481,6.404,4.035,8.381c2.283,1.809,5.266,2.711,8.944,2.711c4.157,0,7.359-0.881,9.609-2.635
		c2.249-1.754,3.374-4.129,3.374-7.127c0-2.182-0.666-3.996-1.996-5.443c-1.328-1.447-3.218-2.65-5.673-3.604l-7.205-2.812
		c-1.329-0.477-2.308-0.996-2.938-1.557c-0.636-0.564-0.946-1.338-0.946-2.324c0-0.99,0.486-1.834,1.455-2.529
		c0.974-0.699,2.324-1.049,4.062-1.049c3.543,0,5.59,1.447,6.136,4.344h5.98V331.872z M508.643,355.894h21.361v-5.264h-15.331
		v-8.738h14.357v-5.217h-14.357v-8.734h15.331v-5.217h-21.361V355.894L508.643,355.894z M478.337,327.939h10.272v27.955h6.029
		v-27.955h10.272v-5.215h-26.575L478.337,327.939L478.337,327.939z M468.291,348.101c-1.584,2.027-3.721,3.039-6.412,3.039
		c-2.689,0-4.838-1.012-6.438-3.039c-1.603-2.029-2.405-4.943-2.405-8.74s0.804-6.727,2.405-8.791c1.6-2.061,3.747-3.09,6.438-3.09
		c2.691,0,4.828,1.027,6.412,3.09c1.585,2.064,2.38,4.994,2.38,8.791S469.877,346.072,468.291,348.101 M450.994,326.302
		c-2.795,2.998-4.191,7.328-4.191,12.98c0,5.59,1.396,9.896,4.191,12.93c2.658,2.932,6.27,4.396,10.834,4.396
		c4.602,0,8.228-1.432,10.886-4.293c2.794-3.064,4.19-7.412,4.19-13.033c0-5.586-1.396-9.879-4.19-12.877
		c-1.327-1.432-2.911-2.516-4.752-3.246c-1.842-0.73-3.868-1.096-6.083-1.096C457.244,322.064,453.616,323.476,450.994,326.302
		 M423.551,338.925v-10.986h6.232c2.047,0,3.578,0.504,4.602,1.506c1.022,1.006,1.534,2.334,1.534,3.988
		c0,1.65-0.562,2.979-1.689,3.986c-1.121,1.002-2.791,1.506-5.006,1.506H423.551L423.551,338.925z M438.934,325.538
		c-2.184-1.877-5.231-2.814-9.15-2.814h-12.265v33.17h6.032v-12.93h4.6l7.309,12.93h7.869l-8.892-13.492
		c2.486-0.646,4.394-1.807,5.725-3.477c1.326-1.67,1.992-3.678,1.992-6.027C442.152,329.796,441.079,327.341,438.934,325.538
		 M395.033,338.568v-10.629h5.62c1.876,0,3.292,0.504,4.244,1.506c0.954,1.006,1.43,2.285,1.43,3.832c0,1.555-0.476,2.82-1.43,3.809
		c-0.952,0.988-2.368,1.482-4.244,1.482H395.033L395.033,338.568z M400.653,322.724H388.95v33.17h6.083v-12.061h5.62
		c3.749,0,6.673-0.91,8.768-2.734c2.093-1.82,3.141-4.428,3.141-7.82c0-3.387-1.048-5.994-3.141-7.814
		C407.326,323.636,404.402,322.724,400.653,322.724"/>
	<path fill="#009393" d="M485.181,309.505h21.36v-5.264h-15.329v-8.741h14.359v-5.213h-14.359v-8.738h15.329v-5.213h-21.36V309.505
		L485.181,309.505z M457.483,281.804h4.699c3.169,0,5.707,1.038,7.614,3.118c1.842,2.044,2.763,4.718,2.763,8.022
		c0,3.236-0.921,5.878-2.763,7.923c-1.942,2.107-4.479,3.166-7.614,3.166h-4.699V281.804z M451.4,276.336v33.167h10.782
		c5.045,0,9.116-1.498,12.214-4.5c3.137-2.996,4.705-7.017,4.705-12.059c0-5.076-1.568-9.113-4.705-12.111
		c-3.098-2.999-7.169-4.498-12.214-4.498L451.4,276.336L451.4,276.336z M437.194,309.505h6.031v-33.168h-6.031V309.505z
		 M385.374,276.336l10.834,33.167h6.34l6.181-18.706l6.238,18.706h6.335l11.397-33.167h-6.798l-7.769,25.296l-7.515-23.099h-4.087
		l-7.104,22.996l-7.309-25.194L385.374,276.336L385.374,276.336z"/>
	<path fill="#009393" d="M531.432,235.416h4.701c3.17,0,5.707,1.038,7.614,3.117c1.841,2.044,2.761,4.719,2.761,8.022
		c0,3.237-0.92,5.876-2.761,7.922c-1.94,2.111-4.479,3.167-7.614,3.167h-4.701V235.416z M525.349,229.946v33.168h10.784
		c5.043,0,9.113-1.5,12.216-4.498c3.133-2.999,4.701-7.019,4.701-12.062c0-5.076-1.568-9.113-4.701-12.111
		c-3.103-2.999-7.173-4.498-12.216-4.498L525.349,229.946L525.349,229.946z M507.466,229.946h-6.029v33.168h19.676v-5.264h-13.646
		L507.466,229.946L507.466,229.946z M475.831,246.147V235.16h6.236c2.043,0,3.576,0.501,4.6,1.508
		c1.021,1.004,1.531,2.333,1.531,3.985c0,1.651-0.562,2.98-1.687,3.987c-1.125,1.004-2.794,1.508-5.007,1.508L475.831,246.147
		L475.831,246.147z M491.215,232.758c-2.182-1.874-5.232-2.812-9.146-2.812h-12.266v33.168h6.028v-12.931h4.601l7.308,12.931h7.869
		l-8.891-13.491c2.482-0.649,4.396-1.809,5.722-3.476c1.331-1.67,1.995-3.681,1.995-6.03
		C494.434,237.016,493.36,234.562,491.215,232.758 M455.312,255.32c-1.585,2.028-3.724,3.041-6.414,3.041
		c-2.691,0-4.836-1.013-6.438-3.041c-1.605-2.026-2.403-4.94-2.403-8.737c0-3.799,0.798-6.729,2.403-8.792
		c1.603-2.062,3.747-3.09,6.438-3.09s4.829,1.029,6.414,3.09c1.584,2.062,2.375,4.993,2.375,8.792
		C457.688,250.38,456.896,253.293,455.312,255.32 M438.015,233.522c-2.796,2.999-4.192,7.326-4.192,12.983
		c0,5.587,1.396,9.896,4.192,12.928c2.654,2.93,6.265,4.396,10.834,4.396c4.597,0,8.227-1.432,10.885-4.292
		c2.79-3.067,4.191-7.412,4.191-13.032c0-5.588-1.401-9.882-4.191-12.881c-1.33-1.431-2.914-2.513-4.755-3.244
		c-1.838-0.731-3.865-1.098-6.08-1.098C444.265,229.283,440.637,230.694,438.015,233.522 M385.374,229.946l10.834,33.168h6.34
		l6.181-18.705l6.238,18.705h6.335l11.397-33.168h-6.798l-7.769,25.298l-7.515-23.101h-4.087l-7.104,22.998l-7.309-25.195H385.374
		L385.374,229.946z"/>
</g>
<g>
	<path fill="#009393" d="M242.547,276.401h-13.19c-0.854,0.036-0.854,0.529-0.854,0.856v31.384c0.036,0.854,0.529,0.854,0.854,0.854
		h13.165c0.354-0.016,0.542-0.113,0.669-0.234l0.211-0.619v-31.384l-0.213-0.627C243.005,276.427,242.75,276.401,242.547,276.401z"
		/>
	<polygon fill="#009393" points="247.508,307.866 300.27,325.947 300.27,259.951 247.508,278.033 	"/>
	<path fill="#009393" d="M261.337,318.863c0,5.982,4.868,10.852,10.851,10.852c4.136,0,7.719-2.34,9.55-5.754l-20.23-6.936
		C261.401,317.622,261.337,318.234,261.337,318.863z"/>
	<path fill="#009393" d="M281.574,212.287c-44.547,0-80.662,36.112-80.662,80.661c0,44.549,36.114,80.661,80.662,80.661
		c44.55,0,80.661-36.111,80.661-80.661C362.235,248.399,326.124,212.287,281.574,212.287z M323.379,328.962
		c0,3.639-2.967,4.959-4.961,4.959h-13.188c-2.835,0-4.25-1.799-4.743-3.537l-14.815-5.078c-2.416,5.035-7.538,8.533-13.483,8.533
		c-8.258,0-14.977-6.719-14.977-14.977c0-1.096,0.143-2.152,0.367-3.184l-11.161-3.824c-1.046,1.236-2.642,1.744-3.87,1.744h-13.19
		c-3.64,0-4.959-2.965-4.959-4.959v-31.383c0-3.64,2.967-4.959,4.959-4.959h13.19c1.829,0,3.072,0.751,3.855,1.75l54.052-18.522
		c0.659-2.568,3.067-3.552,4.775-3.552h13.188c3.642,0,4.961,2.969,4.961,4.963V328.962L323.379,328.962z"/>
	<path fill="#009393" d="M318.418,256.081h-13.188c-0.856,0.033-0.856,0.527-0.856,0.855v72.026
		c0.036,0.855,0.529,0.855,0.856,0.855h13.163c0.883-0.041,0.883-0.531,0.883-0.855v-72.026
		C319.24,256.081,318.746,256.081,318.418,256.081z"/>
</g>
</svg>
