<svg xmlns="http://www.w3.org/2000/svg" viewBox="0 0 389.9 161.32"><title>wwp-logo</title><path d="M363.33,115.65H373.6v28h6v-28H389.9v-5.21H363.33v5.21Zm-3.47,3.93a10.41,10.41,0,0,0-3.5-7.23q-3-2.58-8.64-2.58t-8.87,2.5a7.73,7.73,0,0,0-3.22,6.54,7.36,7.36,0,0,0,2,5.52,17.28,17.28,0,0,0,5.88,3.48l6.59,2.61a9.22,9.22,0,0,1,3.17,1.76,3.62,3.62,0,0,1,1,2.71,3.15,3.15,0,0,1-1.79,2.81,7.54,7.54,0,0,1-3.88,1,12.91,12.91,0,0,1-3.37-.35q-4.24-1.08-4.24-5.16h-6a10.51,10.51,0,0,0,4,8.38,14,14,0,0,0,8.94,2.71q6.24,0,9.61-2.64a8.56,8.56,0,0,0,3.37-7.13,7.74,7.74,0,0,0-2-5.44,14.86,14.86,0,0,0-5.67-3.6l-7.21-2.81a9.1,9.1,0,0,1-2.94-1.56,2.94,2.94,0,0,1-.95-2.32,3.05,3.05,0,0,1,1.46-2.53,6.86,6.86,0,0,1,4.06-1q5.31,0,6.14,4.34h6Zm-52.13,24h21.36v-5.26H313.76V129.6h14.36v-5.22H313.76v-8.73h15.33v-5.22H307.73v33.17Zm-30.31-28H287.7v28h6v-28H304v-5.21H277.42v5.21Zm-10,20.16a8.31,8.31,0,0,1-12.85,0q-2.4-3-2.4-8.74t2.4-8.79a8.22,8.22,0,0,1,12.85,0q2.38,3.1,2.38,8.79t-2.38,8.74M250.08,114q-4.19,4.5-4.19,13t4.19,12.93q4,4.4,10.83,4.4T271.8,140q4.19-4.6,4.19-13t-4.19-12.88a12.86,12.86,0,0,0-4.75-3.25,16.37,16.37,0,0,0-6.08-1.1q-7,0-10.88,4.24m-27.44,12.62v-11h6.23a6.33,6.33,0,0,1,4.6,1.51,5.34,5.34,0,0,1,1.53,4,5.09,5.09,0,0,1-1.69,4,7.31,7.31,0,0,1-5,1.51h-5.67ZM238,113.25q-3.28-2.82-9.15-2.81H216.61v33.17h6V130.68h4.6l7.31,12.93h7.87l-8.89-13.49a10.39,10.39,0,0,0,5.73-3.48,9.39,9.39,0,0,0,2-6,9.12,9.12,0,0,0-3.22-7.36m-43.9,13V115.65h5.62a5.59,5.59,0,0,1,4.24,1.51,5.35,5.35,0,0,1,1.43,3.83A5.25,5.25,0,0,1,204,124.8a5.63,5.63,0,0,1-4.24,1.48Zm5.62-15.84H188v33.17h6.08V131.55h5.62q5.62,0,8.77-2.73t3.14-7.82q0-5.08-3.14-7.81t-8.77-2.74" style="fill:#009393"/><path d="M284.27,97.22h21.36V92H290.3V83.21h14.36V78H290.3V69.26h15.33V64H284.27V97.22Zm-27.7-27.7h4.7a9.83,9.83,0,0,1,7.61,3.12,11.53,11.53,0,0,1,2.76,8,11.39,11.39,0,0,1-2.76,7.92,9.87,9.87,0,0,1-7.61,3.17h-4.7ZM250.49,64V97.22h10.78q7.57,0,12.21-4.5t4.7-12.06q0-7.61-4.7-12.11T261.27,64ZM236.28,97.22h6V64.05h-6ZM184.46,64,195.3,97.22h6.34l6.18-18.71,6.24,18.71h6.33L231.79,64H225l-7.77,25.3-7.52-23.1h-4.09l-7.1,23L191.2,64Z" style="fill:#009393"/><path d="M330.52,23.13h4.7a9.83,9.83,0,0,1,7.61,3.12,11.53,11.53,0,0,1,2.76,8,11.39,11.39,0,0,1-2.76,7.92,9.86,9.86,0,0,1-7.61,3.17h-4.7Zm-6.08-5.47V50.83h10.78q7.56,0,12.22-4.5t4.7-12.06q0-7.61-4.7-12.11t-12.22-4.5Zm-17.88,0h-6V50.83H320.2V45.56H306.56V17.66Zm-31.64,16.2v-11h6.24a6.31,6.31,0,0,1,4.6,1.51,5.34,5.34,0,0,1,1.53,4,5.09,5.09,0,0,1-1.69,4,7.31,7.31,0,0,1-5,1.51ZM290.3,20.47q-3.27-2.81-9.15-2.81H268.89V50.83h6V37.9h4.6l7.31,12.93h7.87l-8.89-13.49a10.41,10.41,0,0,0,5.72-3.48,9.38,9.38,0,0,0,2-6,9.12,9.12,0,0,0-3.22-7.36M254.4,43a8.31,8.31,0,0,1-12.85,0q-2.41-3-2.4-8.74t2.4-8.79a8.23,8.23,0,0,1,12.85,0q2.38,3.09,2.38,8.79T254.4,43m-17.3-21.8q-4.19,4.5-4.19,13t4.19,12.93q4,4.39,10.83,4.4t10.89-4.29q4.19-4.6,4.19-13t-4.19-12.88a12.91,12.91,0,0,0-4.76-3.24A16.31,16.31,0,0,0,248,17q-7,0-10.88,4.24m-52.64-3.58L195.3,50.83h6.34l6.18-18.71,6.24,18.71h6.33l11.4-33.17H225L217.22,43l-7.52-23.1h-4.09l-7.1,23-7.31-25.2h-6.74Z" style="fill:#009393"/><path d="M41.63,64.11H28.44c-.85,0-.85.53-.85.86V96.35c0,.85.53.85.85.85H41.61a1,1,0,0,0,.67-.23l.21-.62V65l-.21-.63A.82.82,0,0,0,41.63,64.11Z" style="fill:#009393"/><polygon points="46.6 95.58 99.36 113.66 99.36 47.66 46.6 65.75 46.6 95.58" style="fill:#009393"/><path d="M60.43,106.58a10.83,10.83,0,0,0,20.4,5.1L60.6,104.74A10.39,10.39,0,0,0,60.43,106.58Z" style="fill:#009393"/><path d="M80.66,0a80.66,80.66,0,1,0,80.66,80.66A80.66,80.66,0,0,0,80.66,0Zm41.8,116.68a4.82,4.82,0,0,1-5,5H104.32a4.66,4.66,0,0,1-4.74-3.54L84.76,113a14.94,14.94,0,0,1-28.09-9.63L45.51,99.57a5.21,5.21,0,0,1-3.87,1.74H28.45a4.82,4.82,0,0,1-5-5V65a4.82,4.82,0,0,1,5-5H41.64a4.67,4.67,0,0,1,3.85,1.75L99.54,43.24a4.87,4.87,0,0,1,4.77-3.55h13.19a4.82,4.82,0,0,1,5,5v72Z" style="fill:#009393"/><path d="M117.51,43.79H104.32c-.86,0-.86.53-.86.86v72c0,.86.53.86.86.86h13.16c.88,0,.88-.53.88-.86v-72C118.33,43.79,117.83,43.79,117.51,43.79Z" style="fill:#009393"/></svg>